<svg width="31" height="25" viewBox="0 0 31 25" fill="none" xmlns="http://www.w3.org/2000/svg">
<path d="M12.5 25C12.1441 25 11.801 24.8725 11.5335 24.6408C10.5236 23.7673 9.5499 22.9464 8.69083 22.2224L8.68645 22.2186C6.16779 20.0956 3.99284 18.2622 2.47955 16.4562C0.787926 14.4371 0 12.5228 0 10.4315C0 8.39963 0.704384 6.52511 1.98326 5.15299C3.2774 3.76464 5.05314 3 6.98395 3C8.42705 3 9.74865 3.45127 10.9119 4.34118C11.499 4.79038 12.0312 5.34014 12.5 5.98139C12.969 5.34014 13.501 4.79038 14.0882 4.34118C15.2515 3.45127 16.5731 3 18.0162 3C19.9469 3 21.7228 3.76464 23.0169 5.15299C24.2958 6.52511 25 8.39963 25 10.4315C25 12.5228 24.2123 14.4371 22.5206 16.456C21.0073 18.2622 18.8326 20.0954 16.3143 22.2182C15.4537 22.9434 14.4785 23.7656 13.4663 24.6412C13.199 24.8725 12.8557 25 12.5 25ZM6.98395 4.44853C5.46703 4.44853 4.07352 5.04734 3.05977 6.13477C2.03094 7.23862 1.46427 8.7645 1.46427 10.4315C1.46427 12.1904 2.12517 13.7634 3.60699 15.5319C5.03922 17.2414 7.16953 19.037 9.63612 21.1162L9.64069 21.12C10.503 21.8469 11.4805 22.671 12.4979 23.5509C13.5214 22.6693 14.5004 21.8439 15.3645 21.1159C17.8308 19.0367 19.961 17.2414 21.3932 15.5319C22.8748 13.7634 23.5357 12.1904 23.5357 10.4315C23.5357 8.7645 22.9691 7.23862 21.9402 6.13477C20.9267 5.04734 19.533 4.44853 18.0162 4.44853C16.905 4.44853 15.8848 4.79793 14.9839 5.48691C14.1811 6.10119 13.6219 6.87771 13.294 7.42105C13.1254 7.70046 12.8286 7.86724 12.5 7.86724C12.1714 7.86724 11.8746 7.70046 11.706 7.42105C11.3783 6.87771 10.8191 6.10119 10.0161 5.48691C9.11522 4.79793 8.09498 4.44853 6.98395 4.44853Z" fill="#6B422B"/>
<circle cx="24" cy="7" r="7" fill="#F9A82F"/>
<path d="M26.8491 4.0498L23.8252 11H22.187L25.2163 4.43652H21.3276V3.17969H26.8491V4.0498Z" fill="white"/>
</svg>
