<svg width="100" height="33" viewBox="0 0 100 33" fill="none" xmlns="http://www.w3.org/2000/svg">
<path d="M24.6045 25.0172L23.3448 10.8319C23.3178 10.517 23.0524 10.2785 22.7419 10.2785H20.1505C20.1145 7.91207 18.18 6 15.8045 6C13.429 6 11.4945 7.91207 11.4585 10.2785H8.86708C8.55215 10.2785 8.29121 10.517 8.26421 10.8319L7.0045 25.0172C7.0045 25.0352 7 25.0532 7 25.0712C7 26.6863 8.48016 28 10.3023 28H21.3068C23.1288 28 24.609 26.6863 24.609 25.0712C24.609 25.0532 24.609 25.0352 24.6045 25.0172ZM15.8045 7.21472C17.5096 7.21472 18.8998 8.58241 18.9358 10.2785H12.6732C12.7092 8.58241 14.0994 7.21472 15.8045 7.21472ZM21.3068 26.7853H10.3023C9.15951 26.7853 8.23272 26.0294 8.21472 25.0982L9.42045 11.4978H11.454V13.3423C11.454 13.6798 11.7239 13.9497 12.0614 13.9497C12.3988 13.9497 12.6687 13.6798 12.6687 13.3423V11.4978H18.9358V13.3423C18.9358 13.6798 19.2057 13.9497 19.5432 13.9497C19.8806 13.9497 20.1505 13.6798 20.1505 13.3423V11.4978H22.1841L23.3943 25.0982C23.3763 26.0294 22.445 26.7853 21.3068 26.7853Z" fill="#6B422B"/>
<circle cx="24" cy="10" r="7" fill="#F9A82F"/>
<path d="M41.6934 23H40V16.4727L37.9785 17.0996V15.7227L41.5117 14.457H41.6934V23ZM44.7227 18.8047L45.2148 14.4688H49.9961V15.8809H46.6035L46.3926 17.7148C46.7949 17.5 47.2227 17.3926 47.6758 17.3926C48.4883 17.3926 49.125 17.6445 49.5859 18.1484C50.0469 18.6523 50.2773 19.3574 50.2773 20.2637C50.2773 20.8145 50.1602 21.3086 49.9258 21.7461C49.6953 22.1797 49.3633 22.5176 48.9297 22.7598C48.4961 22.998 47.9844 23.1172 47.3945 23.1172C46.8789 23.1172 46.4004 23.0137 45.959 22.8066C45.5176 22.5957 45.168 22.3008 44.9102 21.9219C44.6562 21.543 44.5215 21.1113 44.5059 20.627H46.1816C46.2168 20.9824 46.3398 21.2598 46.5508 21.459C46.7656 21.6543 47.0449 21.752 47.3887 21.752C47.7715 21.752 48.0664 21.6152 48.2734 21.3418C48.4805 21.0645 48.584 20.6738 48.584 20.1699C48.584 19.6855 48.4648 19.3145 48.2266 19.0566C47.9883 18.7988 47.6504 18.6699 47.2129 18.6699C46.8105 18.6699 46.4844 18.7754 46.2344 18.9863L46.0703 19.1387L44.7227 18.8047ZM56.0723 17.9844H56.9746C57.4043 17.9844 57.7227 17.877 57.9297 17.6621C58.1367 17.4473 58.2402 17.1621 58.2402 16.8066C58.2402 16.4629 58.1367 16.1953 57.9297 16.0039C57.7266 15.8125 57.4453 15.7168 57.0859 15.7168C56.7617 15.7168 56.4902 15.8066 56.2715 15.9863C56.0527 16.1621 55.9434 16.3926 55.9434 16.6777H54.25C54.25 16.2324 54.3691 15.834 54.6074 15.4824C54.8496 15.127 55.1855 14.8496 55.6152 14.6504C56.0488 14.4512 56.5254 14.3516 57.0449 14.3516C57.9473 14.3516 58.6543 14.5684 59.166 15.002C59.6777 15.4316 59.9336 16.0254 59.9336 16.7832C59.9336 17.1738 59.8145 17.5332 59.5762 17.8613C59.3379 18.1895 59.0254 18.4414 58.6387 18.6172C59.1191 18.7891 59.4766 19.0469 59.7109 19.3906C59.9492 19.7344 60.0684 20.1406 60.0684 20.6094C60.0684 21.3672 59.791 21.9746 59.2363 22.4316C58.6855 22.8887 57.9551 23.1172 57.0449 23.1172C56.1934 23.1172 55.4961 22.8926 54.9531 22.4434C54.4141 21.9941 54.1445 21.4004 54.1445 20.6621H55.8379C55.8379 20.9824 55.957 21.2441 56.1953 21.4473C56.4375 21.6504 56.7344 21.752 57.0859 21.752C57.4883 21.752 57.8027 21.6465 58.0293 21.4355C58.2598 21.2207 58.375 20.9375 58.375 20.5859C58.375 19.7344 57.9062 19.3086 56.9688 19.3086H56.0723V17.9844ZM61.4922 18.8047L61.9844 14.4688H66.7656V15.8809H63.373L63.1621 17.7148C63.5645 17.5 63.9922 17.3926 64.4453 17.3926C65.2578 17.3926 65.8945 17.6445 66.3555 18.1484C66.8164 18.6523 67.0469 19.3574 67.0469 20.2637C67.0469 20.8145 66.9297 21.3086 66.6953 21.7461C66.4648 22.1797 66.1328 22.5176 65.6992 22.7598C65.2656 22.998 64.7539 23.1172 64.1641 23.1172C63.6484 23.1172 63.1699 23.0137 62.7285 22.8066C62.2871 22.5957 61.9375 22.3008 61.6797 21.9219C61.4258 21.543 61.291 21.1113 61.2754 20.627H62.9512C62.9863 20.9824 63.1094 21.2598 63.3203 21.459C63.5352 21.6543 63.8145 21.752 64.1582 21.752C64.541 21.752 64.8359 21.6152 65.043 21.3418C65.25 21.0645 65.3535 20.6738 65.3535 20.1699C65.3535 19.6855 65.2344 19.3145 64.9961 19.0566C64.7578 18.7988 64.4199 18.6699 63.9824 18.6699C63.5801 18.6699 63.2539 18.7754 63.0039 18.9863L62.8398 19.1387L61.4922 18.8047ZM73.1406 19.7891H74.1074V21.1543H73.1406V23H71.4473V21.1543H67.9492L67.873 20.0879L71.4297 14.4688H73.1406V19.7891ZM69.5605 19.7891H71.4473V16.7773L71.3359 16.9707L69.5605 19.7891ZM83.7871 19.8887C83.7871 20.8652 83.5645 21.6484 83.1191 22.2383C82.6777 22.8242 82.0801 23.1172 81.3262 23.1172C80.6855 23.1172 80.168 22.8945 79.7734 22.4492V25.4375H78.0801V16.6602H79.6504L79.709 17.2812C80.1191 16.7891 80.6543 16.543 81.3145 16.543C82.0957 16.543 82.7031 16.832 83.1367 17.4102C83.5703 17.9883 83.7871 18.7852 83.7871 19.8008V19.8887ZM82.0938 19.7656C82.0938 19.1758 81.9883 18.7207 81.7773 18.4004C81.5703 18.0801 81.2676 17.9199 80.8691 17.9199C80.3379 17.9199 79.9727 18.123 79.7734 18.5293V21.125C79.9805 21.543 80.3496 21.752 80.8809 21.752C81.6895 21.752 82.0938 21.0898 82.0938 19.7656ZM87.1387 20.6035L88.3105 16.6602H90.127L87.5781 23.9844L87.4375 24.3184C87.0586 25.1465 86.4336 25.5605 85.5625 25.5605C85.3164 25.5605 85.0664 25.5234 84.8125 25.4492V24.166L85.0703 24.1719C85.3906 24.1719 85.6289 24.123 85.7852 24.0254C85.9453 23.9277 86.0703 23.7656 86.1602 23.5391L86.3594 23.0176L84.1387 16.6602H85.9609L87.1387 20.6035ZM93.9414 17.0117C94.7539 17.0117 95.4023 17.2812 95.8867 17.8203C96.3711 18.3594 96.6133 19.0918 96.6133 20.0176V20.0996C96.6133 21.0137 96.3438 21.7461 95.8047 22.2969C95.2656 22.8477 94.541 23.123 93.6309 23.123C92.7168 23.123 91.9883 22.8262 91.4453 22.2324C90.9062 21.6348 90.6367 20.8242 90.6367 19.8008V19.5195C90.6445 18.0938 90.8848 16.9785 91.3574 16.1738C91.834 15.3652 92.5488 14.8555 93.502 14.6445C94.002 14.5352 94.3242 14.4277 94.4688 14.3223C94.6133 14.2129 94.6855 14.0625 94.6855 13.8711H96.0566C96.0566 14.4844 95.8906 14.9453 95.5586 15.2539C95.2305 15.5625 94.6445 15.8008 93.8008 15.9688C93.3008 16.0703 92.9062 16.2676 92.6172 16.5605C92.3281 16.8535 92.1328 17.2656 92.0312 17.7969C92.5703 17.2734 93.207 17.0117 93.9414 17.0117ZM93.6191 18.3828C93.2168 18.3828 92.9004 18.5176 92.6699 18.7871C92.4434 19.0566 92.3301 19.4941 92.3301 20.0996C92.3301 20.6387 92.4414 21.0508 92.6641 21.3359C92.8867 21.6172 93.209 21.7578 93.6309 21.7578C94.041 21.7578 94.3574 21.6191 94.5801 21.3418C94.8027 21.0645 94.916 20.6562 94.9199 20.1172V19.9766C94.9199 19.457 94.8047 19.0625 94.5742 18.793C94.3477 18.5195 94.0293 18.3828 93.6191 18.3828ZM97.7148 22.168C97.7148 21.8984 97.8047 21.6797 97.9844 21.5117C98.168 21.3438 98.3965 21.2598 98.6699 21.2598C98.9473 21.2598 99.1758 21.3438 99.3555 21.5117C99.5391 21.6797 99.6309 21.8984 99.6309 22.168C99.6309 22.4336 99.541 22.6504 99.3613 22.8184C99.1816 22.9824 98.9512 23.0645 98.6699 23.0645C98.3926 23.0645 98.1641 22.9824 97.9844 22.8184C97.8047 22.6504 97.7148 22.4336 97.7148 22.168Z" fill="#6B422B"/>
<path d="M21.9111 14H20.5V8.56055L18.8154 9.08301V7.93555L21.7598 6.88086H21.9111V14ZM29.0107 11.0605C29.0107 12.0436 28.8073 12.7956 28.4004 13.3164C27.9935 13.8372 27.3978 14.0977 26.6133 14.0977C25.8385 14.0977 25.2461 13.8421 24.8359 13.3311C24.4258 12.82 24.2158 12.0876 24.2061 11.1338V9.8252C24.2061 8.83236 24.4111 8.07878 24.8213 7.56445C25.2347 7.05013 25.8288 6.79297 26.6035 6.79297C27.3783 6.79297 27.9707 7.0485 28.3809 7.55957C28.791 8.06738 29.001 8.79818 29.0107 9.75195V11.0605ZM27.5996 9.625C27.5996 9.03581 27.5182 8.60775 27.3555 8.34082C27.196 8.07064 26.9453 7.93555 26.6035 7.93555C26.2715 7.93555 26.0257 8.06413 25.8662 8.32129C25.71 8.5752 25.627 8.97396 25.6172 9.51758V11.2461C25.6172 11.8255 25.6953 12.2568 25.8516 12.54C26.0111 12.82 26.265 12.96 26.6133 12.96C26.9583 12.96 27.2074 12.8249 27.3604 12.5547C27.5133 12.2845 27.5931 11.8711 27.5996 11.3145V9.625Z" fill="white"/>
</svg>
