<svg width="30" height="30" viewBox="0 0 30 30" fill="none" xmlns="http://www.w3.org/2000/svg">
<path d="M20.9111 11H19.5V5.56055L17.8154 6.08301V4.93555L20.7598 3.88086H20.9111V11ZM28.0107 8.06055C28.0107 9.04362 27.8073 9.79557 27.4004 10.3164C26.9935 10.8372 26.3978 11.0977 25.6133 11.0977C24.8385 11.0977 24.2461 10.8421 23.8359 10.3311C23.4258 9.81999 23.2158 9.08757 23.2061 8.13379V6.8252C23.2061 5.83236 23.4111 5.07878 23.8213 4.56445C24.2347 4.05013 24.8288 3.79297 25.6035 3.79297C26.3783 3.79297 26.9707 4.0485 27.3809 4.55957C27.791 5.06738 28.001 5.79818 28.0107 6.75195V8.06055ZM26.5996 6.625C26.5996 6.03581 26.5182 5.60775 26.3555 5.34082C26.196 5.07064 25.9453 4.93555 25.6035 4.93555C25.2715 4.93555 25.0257 5.06413 24.8662 5.32129C24.71 5.5752 24.627 5.97396 24.6172 6.51758V8.24609C24.6172 8.82552 24.6953 9.25684 24.8516 9.54004C25.0111 9.81999 25.265 9.95996 25.6133 9.95996C25.9583 9.95996 26.2074 9.82487 26.3604 9.55469C26.5133 9.28451 26.5931 8.87109 26.5996 8.31445V6.625Z" fill="white"/>
</svg>
